<svg width="55" height="55" viewBox="0 0 55 55" fill="none" xmlns="http://www.w3.org/2000/svg">
<path d="M1.16016 54.5596C1.90137 52.3359 2.59961 50.2519 3.29785 48.168C3.99609 46.1055 4.61914 44.0107 5.41406 41.9805C5.82227 40.9492 5.69336 40.1758 5.17774 39.209C2.36328 33.9883 1.52539 28.3916 2.50293 22.5693C3.33008 17.6387 5.42481 13.2773 8.80859 9.57129C14.3838 3.48047 21.3447 0.558601 29.5732 0.902351C35.5996 1.14942 40.9277 3.35157 45.4717 7.33692C49.7041 11.043 52.4649 15.6514 53.7432 21.1299C54.7744 25.5449 54.6563 29.9385 53.3887 34.2891C51.7774 39.7998 48.6943 44.3437 44.1074 47.8027C37.7373 52.6152 30.5938 54.1084 22.8057 52.5937C20.4639 52.1426 18.2295 51.3047 16.124 50.166C15.7803 49.9834 15.4902 49.9404 15.1143 50.0693C11.1182 51.3584 7.11133 52.6367 3.11523 53.915C2.51367 54.1084 1.90137 54.3125 1.16016 54.5596ZM7.95996 47.8242C8.17481 47.7705 8.27149 47.749 8.36817 47.7168C10.8711 46.9219 13.374 46.1162 15.8877 45.3428C16.124 45.2676 16.4463 45.332 16.6719 45.4394C17.7568 45.9766 18.7988 46.6211 19.916 47.0937C24.5137 49.0381 29.251 49.3496 34.042 48.0176C39.7568 46.417 44.1397 43.0117 47.1367 37.8662C49.7041 33.4619 50.585 28.7031 49.79 23.6973C48.7803 17.3272 45.5147 12.3213 40.1113 8.76563C35.4277 5.69336 30.2715 4.65137 24.7715 5.52149C20.0342 6.27344 15.9844 8.43262 12.6436 11.8916C9.77539 14.8564 7.85254 18.3584 7.01465 22.3867C5.82227 28.1553 6.70312 33.6123 9.9043 38.5859C10.5488 39.585 10.5273 40.3477 10.1406 41.3682C9.35645 43.4629 8.70117 45.6006 7.95996 47.8242Z" fill="white"/>
<path d="M41.8193 34.5684C41.7871 36.6416 40.8096 38.2207 38.833 39.209C36.8887 40.1758 34.9121 40.4229 32.8818 39.6279C31.0557 38.9082 29.208 38.21 27.4463 37.3399C25.126 36.1904 23.2246 34.4717 21.4844 32.5703C19.5615 30.4649 17.9287 28.1231 16.5859 25.6201C15.6299 23.8477 15.0498 21.9678 15.2539 19.9053C15.4687 17.7139 16.4892 15.9629 18.208 14.6416C18.5517 14.3838 19.0674 14.2656 19.5078 14.2227C20.0771 14.1797 20.6465 14.2656 21.2158 14.3086C21.6885 14.3516 21.9463 14.6846 22.1074 15.0713C22.5264 16.1025 22.9023 17.1338 23.2998 18.1758C23.5684 18.874 23.7725 19.6045 24.0947 20.2813C24.4922 21.1191 24.2451 21.8174 23.7295 22.4619C23.2891 23.0098 22.8271 23.5361 22.3223 24.0088C21.9033 24.4063 21.8281 24.8145 22.1074 25.2979C23.3428 27.5 24.8467 29.4766 26.834 31.0772C28.1445 32.1299 29.5947 32.9141 31.0986 33.6445C31.5391 33.8594 31.9687 33.8272 32.3125 33.4297C33.0537 32.5811 33.8057 31.7432 34.5361 30.8838C35.0088 30.3359 35.2451 30.2285 35.8789 30.5508C37.7158 31.4746 39.5312 32.4307 41.3574 33.3867C41.7871 33.6231 41.8945 34.0098 41.8193 34.5684Z" fill="white"/>
</svg>
