<svg width="60" height="60" viewBox="0 0 60 60" fill="none" xmlns="http://www.w3.org/2000/svg">
<path d="M29.3576 44.5081H32.4369C32.4369 44.5081 33.3648 44.4074 33.8384 43.8995C34.2884 43.426 34.2884 42.5495 34.2884 42.5495C34.2884 42.5495 34.2219 38.4202 36.1505 37.8138C38.0513 37.2116 40.462 41.7995 43.0313 43.5631C44.9942 44.911 46.4706 44.6217 46.4706 44.6217L53.3513 44.5274C53.3513 44.5274 56.9556 44.3024 55.2521 41.4717C55.1213 41.2467 54.2856 39.3824 50.1713 35.5573C45.8599 31.5695 46.4384 32.2123 51.6199 25.2994C54.7678 21.0887 56.0556 18.5151 55.6378 17.4222C55.2821 16.3937 52.9378 16.6487 52.9378 16.6487L45.2192 16.7151C45.2192 16.7151 44.6406 16.6487 44.2227 16.908C43.8049 17.163 43.5499 17.7458 43.5499 17.7458C43.5499 17.7458 42.3241 21.0223 40.687 23.7887C37.2091 29.6366 35.827 29.958 35.2805 29.5723C33.9862 28.7345 34.3184 26.1866 34.3184 24.3609C34.3184 18.7015 35.1841 16.3251 32.6448 15.7144C31.8091 15.5194 31.1855 15.393 29.0341 15.3587C26.2698 15.3287 23.9383 15.3801 22.6162 16.0251C21.7483 16.4601 21.0733 17.4222 21.4612 17.4715C21.9755 17.5358 23.1305 17.7844 23.7412 18.6223C24.5448 19.7065 24.5105 22.128 24.5105 22.128C24.5105 22.128 24.9626 28.8052 23.4519 29.6345C22.3912 30.1959 20.9769 29.0345 17.8911 23.7287C16.3161 21.0287 15.1247 18.0072 15.1247 18.0072C15.1247 18.0072 14.8997 17.4587 14.484 17.1372C13.9975 16.7837 13.2904 16.6551 13.2904 16.6551L5.92965 16.7194C5.92965 16.7194 4.83678 16.7537 4.45321 17.2337C4.09749 17.6515 4.41892 18.5515 4.41892 18.5515C4.41892 18.5515 10.1747 32.0238 16.7018 38.8081C22.6805 45.0267 29.4648 44.626 29.4648 44.626L29.3576 44.5081Z" fill="white"/>
</svg>
