<svg width="60" height="60" viewBox="0 0 60 60" fill="none" xmlns="http://www.w3.org/2000/svg">
<path d="M28.1252 15.6141C30.5562 15.6141 32.5331 17.591 32.5331 20.022C32.5331 22.4505 30.5562 24.428 28.1252 24.428C25.6966 24.428 23.7173 22.4505 23.7173 20.022C23.7173 17.591 25.6966 15.6141 28.1252 15.6141ZM28.1252 30.6647C33.9975 30.6647 38.771 25.8912 38.771 20.022C38.771 14.1504 33.9975 9.375 28.1252 9.375C22.2544 9.375 17.4795 14.1504 17.4795 20.022C17.4795 25.8909 22.2544 30.6647 28.1252 30.6647ZM32.4323 39.3495C34.5996 38.8556 36.6898 37.9983 38.6145 36.7889C40.0711 35.8709 40.5103 33.945 39.5923 32.4881C38.6754 31.028 36.7507 30.589 35.2915 31.507C30.9309 34.2499 25.3162 34.2487 20.958 31.507C19.4986 30.589 17.5741 31.0282 16.6582 32.4881C15.7402 33.9462 16.178 35.8709 17.6351 36.7889C19.5595 37.9969 21.6497 38.8556 23.817 39.3495L17.865 45.3012C16.6481 46.5192 16.6481 48.4936 17.8662 49.7114C18.4758 50.3198 19.2734 50.6248 20.0707 50.6248C20.8695 50.6248 21.6682 50.3201 22.2778 49.7114L28.1238 43.8628L33.975 49.7114C35.1919 50.9295 37.1662 50.9295 38.3841 49.7114C39.6033 48.4936 39.6033 46.5178 38.3841 45.3012C38.3843 45.3012 32.4323 39.3495 32.4323 39.3495Z" fill="white"/>
</svg>
